<svg version="1.2" xmlns="http://www.w3.org/2000/svg" viewBox="0 0 916 331" width="916" height="331"><defs><clipPath clipPathUnits="userSpaceOnUse" id="cp1"><path d="m-95-34h1100v426h-1100z"/></clipPath></defs><style>.a{fill:#020407}.b{fill:#010306}</style><g clip-path="url(#cp1)"><path class="a" d="m72 212.3l-1-1.9 1.8-1.1c54-33.8 49.8-86.7 49.6-88.9l-0.1-1.5-1.2-14h36.2l1 10.8 0.1 1.2c0.3 3.1 6.7 76.6-65.5 122.5l-1.6 1-1.3-1.5c-6.8-8.3-12.8-17.3-18-26.6zm71.7 86l19.5 10-2.9 2.2c-9.7 7.1-20.2 13.8-31 19.7l-0.5 0.3h-1.6l-0.5-0.3c-10.9-6-21.4-12.6-31-19.7-5-3.7-9.8-7.6-14.4-11.6-8.6-7.3-16.6-15.3-23.9-23.7-3.7-4.2-7.3-8.7-10.8-13.4-6.4-8.6-12.2-17.8-17.2-27.1-34.8-64.3-28.1-127.2-28.1-127.9l0.3-1.9h52.7v36.1h-16.5c1.9 19.5 7.6 48 23.6 77.1 5 9.2 10.9 18.1 17.4 26.3 3.5 4.5 7.3 8.8 11.1 12.8 7.5 8 15.7 15.4 24.6 22.2 4.8 3.6 9.7 7.1 14.7 10.3 4.6 3 9.5 5.9 14.5 8.6zm26.9-182.6l-1-10.8h36.3l0.6 6.4v0.7c0.5 4 9 99.2-77.2 161.2l-1.3 0.9-1.3-0.9c-9.2-6.6-17.7-13.9-25.2-21.6l-1.9-1.9 2.2-1.5c76-49.9 69.1-129.2 68.8-132.5zm522.9 8.1l-78.1 32.8 32.3-51.7h40.8c0.2 0.9 5 18.9 5 18.9zm-518.8 175.2l-1.1 0.9-24.1-12.4c-3-1.6-5.6-3.1-7.8-4.5l-2.8-1.7 2.6-1.9c86.6-66.2 77.6-164.5 77.2-168.7l-0.1-0.5-0.4-5.3h36.2l0.2 1.9c0.2 1.2 11.7 113.3-79.9 192.2zm726.6-81.3c0 62.2-48.4 112.8-107.9 112.8-10.9 0-21.7-1.7-32-5.1l-1.2-0.4-13-48.3 5.2 3.8c12.1 9.1 26.3 13.8 41 13.8 39.6 0 71.8-34.4 71.8-76.6 0-42.3-32.2-76.7-71.8-76.7-28.7 0-54.6 18.2-66 46.4l-2.5 6.2-13.2-49.5 0.7-0.9c20.5-24.4 50-38.3 81-38.3 59.5 0 107.9 50.6 107.9 112.8zm-204.2-80.7l51.9 193.3h-42.5l-41.7-155.3-24.1 10.2-90.5 145.1h-156.7l118.3-189.3h-92.9v-36.1h158.6l-118.3 189.2h70.4l73.3-117.5zm-273.7 80.7c0 62.2-48.4 112.8-107.9 112.8-40.4 0-77.2-23.4-95.9-61l-0.6-1.3 0.8-1c8-11 15.1-22.7 21.1-34.9l3-6 1.2 6.5c6.7 35.7 36.3 61.5 70.4 61.5 39.5 0 71.7-34.4 71.7-76.6 0-42.3-32.2-76.7-71.7-76.7-17.7 0-34.7 7-47.9 19.6l-4.8 4.6 1-6.5c2.6-17.1 3-31.3 2.9-40.2l-0.1-1.4 1.3-0.6c14.9-7.7 30.9-11.6 47.6-11.6 59.5 0 107.9 50.6 107.9 112.8z"/><path fill-rule="evenodd" class="a" d="m700.3 157.7l45.8 170.4h-37.9l-41.9-156.1-27.1 11.4-90.2 144.7h-151.5l118.3-189.3h-94.7v-31.7h152.4l-8.9 14.1-1.2 2-6.9 11-101.3 162.2h75.7l57-91.4 16.5-26.6 51.3-21.6 5.9-2.4 34-14.3zm-9.4-35.2l-70 29.4 16.6-26.6 11.4-18.2h37.8zm208.2 95.2c0 60.9-47.4 110.6-105.7 110.6-10.9 0-21.4-1.8-31.3-5l-11-41c12 9 26.6 14.3 42.3 14.3 40.8 0 74-35.4 74-78.9 0-43.5-33.2-78.9-74-78.9-30.4 0-56.7 19.7-68 47.8l-11.3-41.9c19.4-23 47.8-37.6 79.3-37.6 58.3 0 105.7 49.6 105.7 110.6zm-477.9 0c0 60.9-47.4 110.6-105.7 110.6-40.8 0-76.2-24.3-93.8-59.8 8.5-11.7 15.5-23.6 21.3-35.2 6.8 36 36.7 63.3 72.5 63.3 40.8 0 74-35.4 74-78.9 0-43.5-33.2-78.9-74-78.9-19 0-36.3 7.7-49.4 20.2 2.5-16.9 3-31 2.8-40.5 14.1-7.3 29.9-11.4 46.6-11.4 58.3 0 105.7 49.6 105.7 110.6zm-329.4 19.8c-7-8.7-12.9-17.5-17.8-26.3 55-34.5 50.9-88.6 50.7-91l-0.1-1.4-1.1-11.7h31.8l0.8 8.8 0.1 1.2c0.4 3.2 6.7 75.3-64.4 120.4zm50.9 62.8l16.3 8.4c-9.3 6.9-19.5 13.4-30.8 19.6h-0.4c-11.2-6.2-21.4-12.7-30.8-19.6q-7.5-5.6-14.2-11.4c-8.8-7.6-16.7-15.5-23.6-23.5q-5.7-6.6-10.7-13.3c-6.6-8.9-12.3-17.9-17.1-26.8-34.9-64.4-27.8-126.6-27.8-126.6h48.6v31.7h-16.8c1.8 20.7 7.5 50.2 24.1 80.4 4.9 8.9 10.7 17.8 17.6 26.6 3.4 4.3 7.2 8.7 11.2 13 7.3 7.7 15.5 15.2 24.9 22.3 4.6 3.6 9.6 7.1 14.8 10.5q7 4.5 14.7 8.7zm30-186l-0.6-7.2h31.8l0.4 4.4 0.1 0.7c0.4 4.3 8.9 97.8-76.4 159.2-9.4-6.8-17.7-13.9-24.9-21.3 77.2-50.7 70.1-131.1 69.7-134.6zm0.6 182.9l-22.8-11.7q-3.9-2.2-7.6-4.4c87.6-66.9 78.5-166.1 78.1-170.6l-0.1-0.7-0.3-2.8h31.9c0 0 12.6 111.2-79.2 190.2z"/><path fill-rule="evenodd" class="a" d="m896 125.8v-13.8h5.9q2.2 0 3.2 0.3 1 0.4 1.6 1.4 0.6 0.9 0.6 2.1 0 1.6-0.9 2.6-1 1-2.8 1.3 0.9 0.5 1.5 1.1 0.6 0.7 1.6 2.3l1.7 2.7h-3.3l-2.1-3q-1-1.6-1.4-2.1-0.4-0.4-0.9-0.5-0.4-0.2-1.4-0.2h-0.5v5.8zm2.8-8h2q2 0 2.5-0.2 0.5-0.1 0.8-0.5 0.3-0.5 0.3-1.1 0-0.7-0.4-1.1-0.3-0.4-1-0.6-0.4 0-2.1 0h-2.1z"/><path fill-rule="evenodd" class="a" d="m915.9 119.5c0 8.1-6.5 14.6-14.6 14.6-8.1 0-14.6-6.5-14.6-14.6 0-8.1 6.5-14.6 14.6-14.6 8.1 0 14.6 6.5 14.6 14.6zm-14.6 12.4c6.8 0 12.4-5.6 12.4-12.4 0-6.8-5.6-12.4-12.4-12.4-6.8 0-12.4 5.6-12.4 12.4 0 6.8 5.6 12.4 12.4 12.4z"/><path fill-rule="evenodd" class="b" d="m16.9 86.1q-5.4 0-9.5-1.1-4-1.1-7-2.7v-8.3q2.8 1.8 7.2 3.3 4.4 1.5 9 1.5 4.6 0 7.6-1.3 3-1.2 4.5-3.3 1.6-2.3 1.6-5.2 0-2.3-1-3.9-1-1.7-3.3-3.4-2.2-1.6-5.9-3.7-4.1-2.3-7-4.6-2.8-2.4-4.3-5.2-1.5-2.8-1.5-6.6 0-5 2.5-8.8 2.5-3.7 6.9-5.7 4.6-2 10.6-2 5.3 0 9.8 1.2 4.5 1.2 7.8 2.7l-2.9 7.2q-2.8-1.4-6.4-2.5-3.6-1.1-8.3-1.1-5.1 0-8.1 2.3-2.9 2.3-2.9 6.2 0 2.1 0.8 3.7 0.9 1.6 3.1 3.2 2.2 1.6 6.1 3.6 3.7 2.2 6.6 4.4 3 2.3 4.7 5.2 1.8 2.8 1.8 7 0 5.7-2.7 9.8-2.8 3.9-7.9 6-5 2.1-11.9 2.1zm57.2-0.2q-6.8 0-11.7-2.8-4.9-2.8-7.5-7.8-2.6-5.1-2.6-12.1 0-5.5 1.2-11 1.3-5.4 3.7-10.3 2.4-4.9 5.9-8.6 3.6-3.7 8.3-5.8 4.7-2.2 10.4-2.2 6.9 0 11.7 2.8 4.9 2.8 7.5 7.9 2.6 5.1 2.6 12 0 5.5-1.2 11-1.2 5.4-3.6 10.3-2.4 4.8-5.9 8.6-3.6 3.7-8.3 5.8-4.7 2.2-10.5 2.2zm0.5-7.5q3.3 0 6.3-1.3 3-1.4 5.5-4.1 2.5-2.7 4.2-6.5 1.9-3.8 2.8-8.7 1.1-4.9 1.1-10.8 0-3.5-1.3-6.7-1.2-3.3-3.9-5.4-2.8-2.2-7.4-2.2-3.7 0-6.9 1.6-3.2 1.6-5.7 4.4-2.6 2.8-4.3 6.7-1.7 3.9-2.7 8.5-0.9 4.6-0.9 9.7 0 7.1 3.4 11 3.5 3.8 9.8 3.8zm9.5-60.1h-5.6v-1.3q2-2.1 4.3-5 2.3-2.8 4.5-5.8 2.3-3 3.8-5.5h10.2v1.1q-1.2 1.5-3.2 3.7-2 2.2-4.5 4.6-2.4 2.3-4.9 4.5-2.5 2.2-4.6 3.7zm51.7 67.8q-6.5 0-11.5-2.5-4.9-2.5-7.6-7.4-2.7-4.9-2.7-12.1 0-6.3 1.4-12.1 1.3-5.8 4-10.7 2.6-4.9 6.4-8.6 3.7-3.6 8.5-5.6 4.8-2 10.5-2 3.9 0 7.6 0.7 3.8 0.7 6.9 2.1l-2.5 7.5q-2.3-1.1-5.4-2-3-0.8-6.5-0.8-4.9 0-8.9 2.4-4 2.5-6.9 6.9-2.8 4.4-4.4 10-1.6 5.7-1.6 12 0 4.6 1.6 7.9 1.7 3.3 4.7 5.1 3 1.8 7.3 1.8 3.9 0 7.3-1.1 3.5-1.1 6.9-2.6v7.6q-3 1.5-6.8 2.5-3.8 1-8.3 1zm34.5-1.1h-8.9l12.5-58.9h9zm11-69.1q-2.1 0-3.6-1.3-1.4-1.3-1.4-3.6 0-1.8 0.7-3.3 0.8-1.6 2.1-2.5 1.4-0.9 3.4-0.9 2.4 0 3.6 1.2 1.1 1.2 1.1 3.4 0 3.2-1.8 5.1-1.8 1.9-4.1 1.9zm31.5 70q-6.7 0-11.6-2.7-4.9-2.8-7.5-7.9-2.6-5.1-2.6-12 0-5.6 1.2-11 1.3-5.5 3.7-10.3 2.4-4.9 5.9-8.6 3.6-3.8 8.3-5.9 4.7-2.1 10.4-2.1 6.9 0 11.7 2.8 4.9 2.7 7.5 7.8 2.6 5.1 2.6 12.1 0 5.5-1.2 10.9-1.2 5.4-3.6 10.3-2.4 4.8-6 8.6-3.5 3.7-8.2 5.8-4.7 2.2-10.6 2.2zm0.6-7.4q3.3 0 6.3-1.4 3-1.4 5.5-4 2.5-2.7 4.2-6.5 1.9-3.9 2.8-8.8 1.1-4.9 1.1-10.7 0-3.5-1.3-6.8-1.2-3.3-4-5.4-2.7-2.1-7.3-2.1-3.7 0-6.9 1.5-3.2 1.6-5.7 4.4-2.6 2.9-4.3 6.7-1.7 3.9-2.7 8.5-0.9 4.7-0.9 9.8 0 7 3.4 10.9 3.4 3.9 9.8 3.9z"/></g></svg>